<?xml version="1.0" encoding="UTF-8" standalone="no"?>
<!-- Created with Inkscape (http://www.inkscape.org/) -->

<svg
   xmlns:dc="http://purl.org/dc/elements/1.1/"
   xmlns:cc="http://creativecommons.org/ns#"
   xmlns:rdf="http://www.w3.org/1999/02/22-rdf-syntax-ns#"
   xmlns:svg="http://www.w3.org/2000/svg"
   xmlns="http://www.w3.org/2000/svg"
   xmlns:sodipodi="http://sodipodi.sourceforge.net/DTD/sodipodi-0.dtd"
   xmlns:inkscape="http://www.inkscape.org/namespaces/inkscape"
   width="210mm"
   height="297mm"
   viewBox="0 0 210 297"
   version="1.1"
   id="svg8"
   inkscape:version="0.92.3 (2405546, 2018-03-11)"
   sodipodi:docname="03_box.svg">
  <defs
     id="defs2">
    <clipPath
       id="clipPath26"
       clipPathUnits="userSpaceOnUse">
      <path
         inkscape:connector-curvature="0"
         id="path24"
         d="M 0,612 H 792 V 0 H 0 Z" />
    </clipPath>
  </defs>
  <sodipodi:namedview
     id="base"
     pagecolor="#ffffff"
     bordercolor="#666666"
     borderopacity="1.0"
     inkscape:pageopacity="0.0"
     inkscape:pageshadow="2"
     inkscape:zoom="0.49497475"
     inkscape:cx="419.79965"
     inkscape:cy="728.04485"
     inkscape:document-units="mm"
     inkscape:current-layer="layer1"
     showgrid="false"
     inkscape:window-width="784"
     inkscape:window-height="600"
     inkscape:window-x="218"
     inkscape:window-y="0"
     inkscape:window-maximized="0" />
  <metadata
     id="metadata5">
    <rdf:RDF>
      <cc:Work
         rdf:about="">
        <dc:format>image/svg+xml</dc:format>
        <dc:type
           rdf:resource="http://purl.org/dc/dcmitype/StillImage" />
        <dc:title></dc:title>
      </cc:Work>
    </rdf:RDF>
  </metadata>
  <g
     inkscape:label="Ebene 1"
     inkscape:groupmode="layer"
     id="layer1">
    <path
       inkscape:connector-curvature="0"
       id="path30"
       style="fill:none;stroke:#231f20;stroke-width:0.35277778;stroke-linecap:butt;stroke-linejoin:miter;stroke-miterlimit:4;stroke-dasharray:none;stroke-opacity:1"
       d="m 19.484056,100.33862 c 0,-0.552097 0.447322,-1.00012 0.999772,-1.00012 h 1.950156 v -10.299355 h -1.950156 c -0.55245,0 -0.999772,-0.448028 -0.999772,-1.000125 v -3.250142 h 3.000022 c 3.365853,0 6.073069,-0.531636 7.723717,-1.166988 1.616075,-0.621242 4.141963,-1.083028 7.276041,-1.083028 0.34537,0 0.625122,-0.279753 0.625122,-0.625122 0,-0.345017 -0.279752,-0.62477 -0.625122,-0.62477 -3.365853,0 -6.073422,0.531284 -7.724422,1.166636 -1.615722,0.621242 -4.141611,1.083381 -7.275336,1.083381 l -3.000022,-3.53e-4 c -1.035756,0 -1.875367,-0.839258 -1.875367,-1.875014 0,-1.035403 0.839611,-1.874661 1.875367,-1.874661 v 1.150056 h 3.000022 v -1.400175 c 0,-0.552098 0.44697,-0.999773 0.999772,-0.999773 h 0.500239 c 0.127353,0 0.255411,0.04904 0.353484,0.146403 0.195086,0.195439 0.511175,0.195439 0.706966,0 0.194734,-0.195439 0.511881,-0.195439 0.706967,3.53e-4 0.194733,0.195086 0.51188,0.195086 0.706967,-3.53e-4 0.194733,-0.195439 0.51188,-0.195439 0.706613,3.53e-4 0.195792,0.195086 0.512234,0.195086 0.706967,-3.53e-4 0.195792,-0.195439 0.512233,-0.195439 0.707672,3.53e-4 0.195086,0.195086 0.511175,0.195086 0.706967,-3.53e-4 0.09737,-0.09737 0.225425,-0.146403 0.353483,-0.146403 h 73.386965 c 0.12841,0 0.25647,0.04904 0.35348,0.146403 0.1958,0.195439 0.51224,0.195439 0.70697,3.53e-4 0.1958,-0.195792 0.51189,-0.195792 0.70768,-3.53e-4 0.19508,0.195439 0.51117,0.195439 0.70696,3.53e-4 0.19474,-0.195792 0.51188,-0.195792 0.70662,-3.53e-4 0.19544,0.195439 0.51258,0.195439 0.70732,3.53e-4 0.19508,-0.195792 0.51223,-0.195792 0.70696,-3.53e-4 0.1958,0.195439 0.51188,0.195439 0.70697,0 0.0981,-0.09737 0.22613,-0.146403 0.35348,-0.146403 h 0.50024 c 0.55245,0 0.99977,0.447675 0.99977,0.999773 v 1.400175 h 3.14996 v -1.150056 c 1.0354,0 1.87466,0.839258 1.87466,1.874661 0,1.035756 -0.83926,1.875014 -1.87466,1.875014 l -3.14996,3.53e-4 c -3.13372,0 -5.65961,-0.462139 -7.27534,-1.083381 -1.65101,-0.635352 -4.358229,-1.166636 -7.724082,-1.166636 -0.345369,0 -0.624769,0.279753 -0.624769,0.62477 0,0.345369 0.2794,0.625122 0.624769,0.625122 3.133725,0 5.659612,0.461786 7.275352,1.083028 1.65101,0.635352 4.35822,1.166988 7.72407,1.166988 h 3.14996 v 3.250142 c 0,0.552097 -0.44733,1.000125 -0.99978,1.000125 h -2.10043 v 10.299355 h 2.10043 c 0.55245,0 0.99978,0.448023 0.99978,1.00012 v 4.50003 c 1.0354,0 1.87466,0.83961 1.87466,1.87502 0,1.03575 -0.83926,1.87501 -1.87466,1.87501 v -1.15005 h -3.14996 v 1.40017 c 0,0.55174 -0.44732,0.99977 -0.99977,0.99977 h -85.69997 c -0.552802,0 -0.999772,-0.44803 -0.999772,-0.99977 v -1.40017 h -3.000022 v 1.15005 c -1.035756,0 -1.875367,-0.83926 -1.875367,-1.87501 0,-1.03541 0.839611,-1.87502 1.875367,-1.87502 z" />
    <path
       d="m 54.733575,107.43845 h -12.000088 v -3.09986 h 12.000088 z"
       style="fill:none;stroke:#231f20;stroke-width:0.35277778;stroke-linecap:butt;stroke-linejoin:miter;stroke-miterlimit:4;stroke-dasharray:none;stroke-opacity:1"
       id="path32"
       inkscape:connector-curvature="0" />
    <path
       d="m 90.23325,107.43845 h -12.000089 v -3.09986 h 12.000089 z"
       style="fill:none;stroke:#231f20;stroke-width:0.35277778;stroke-linecap:butt;stroke-linejoin:miter;stroke-miterlimit:4;stroke-dasharray:none;stroke-opacity:1"
       id="path34"
       inkscape:connector-curvature="0" />
    <path
       d="m 54.733575,84.0387 h -12.000088 v -3.099859 h 12.000088 z"
       style="fill:none;stroke:#231f20;stroke-width:0.35277778;stroke-linecap:butt;stroke-linejoin:miter;stroke-miterlimit:4;stroke-dasharray:none;stroke-opacity:1"
       id="path36"
       inkscape:connector-curvature="0" />
    <path
       d="m 90.23325,84.0387 h -12.000089 v -3.099859 h 12.000089 z"
       style="fill:none;stroke:#231f20;stroke-width:0.35277778;stroke-linecap:butt;stroke-linejoin:miter;stroke-miterlimit:4;stroke-dasharray:none;stroke-opacity:1"
       id="path38"
       inkscape:connector-curvature="0" />
    <path
       inkscape:connector-curvature="0"
       id="path178"
       style="fill:none;stroke:#231f20;stroke-width:0.35277778;stroke-linecap:butt;stroke-linejoin:miter;stroke-miterlimit:4;stroke-dasharray:none;stroke-opacity:1"
       d="m 104.90851,170.33848 c 0,0.55174 -0.44803,0.99907 -0.99977,0.99907 h -19.250401 v 2.00025 c 0,0.55174 -0.448027,0.99977 -0.999772,0.99977 h -9.999838 c -0.552098,0 -1.000125,-0.44803 -1.000125,-0.99977 v -2.00025 h -23.499233 v 2.00025 c 0,0.55174 -0.448028,0.99977 -0.999772,0.99977 h -10.000545 c -0.551744,0 -0.999772,-0.44803 -0.999772,-0.99977 v -2.00025 h -19.249672 c -0.552802,0 -1.000477,-0.44733 -1.000477,-0.99907 v -54.50028 c 0,-0.5521 0.447675,-0.99978 1.000477,-0.99978 h 19.249672 v -2.00025 c 0,-0.55209 0.448028,-0.99977 0.999772,-0.99977 h 10.000545 c 0.551744,0 0.999772,0.44768 0.999772,0.99977 v 2.00025 h 23.499233 v -2.00025 c 0,-0.55209 0.448027,-0.99977 1.000125,-0.99977 h 9.999838 c 0.551745,0 0.999772,0.44768 0.999772,0.99977 v 2.00025 h 19.250401 c 0.55174,0 0.99977,0.44768 0.99977,0.99978 z" />
    <path
       d="m 92.198927,205.13779 h -3.179938 v -8.0003 h 3.179938 z"
       style="fill:none;stroke:#231f20;stroke-width:0.35277778;stroke-linecap:butt;stroke-linejoin:miter;stroke-miterlimit:4;stroke-dasharray:none;stroke-opacity:1"
       id="path244"
       inkscape:connector-curvature="0" />
    <path
       d="m 92.198927,186.83814 h -3.179938 v -8.00029 h 3.179938 z"
       style="fill:none;stroke:#231f20;stroke-width:0.35277778;stroke-linecap:butt;stroke-linejoin:miter;stroke-miterlimit:4;stroke-dasharray:none;stroke-opacity:1"
       id="path246"
       inkscape:connector-curvature="0" />
    <path
       d="m 29.618268,205.13779 h 3.179939 v -8.0003 h -3.179939 z"
       style="fill:none;stroke:#231f20;stroke-width:0.35277778;stroke-linecap:butt;stroke-linejoin:miter;stroke-miterlimit:4;stroke-dasharray:none;stroke-opacity:1"
       id="path248"
       inkscape:connector-curvature="0" />
    <path
       d="m 29.618268,186.83814 h 3.179939 v -8.00029 h -3.179939 z"
       style="fill:none;stroke:#231f20;stroke-width:0.35277778;stroke-linecap:butt;stroke-linejoin:miter;stroke-miterlimit:4;stroke-dasharray:none;stroke-opacity:1"
       id="path250"
       inkscape:connector-curvature="0" />
    <path
       inkscape:connector-curvature="0"
       id="path254"
       style="fill:none;stroke:#231f20;stroke-width:0.35277778;stroke-linecap:butt;stroke-linejoin:miter;stroke-miterlimit:4;stroke-dasharray:none;stroke-opacity:1"
       d="m 94.608682,204.63751 c 0,1.657 -1.343731,3.00002 -3.000022,3.00002 h -61.400265 c -1.656292,0 -3.000023,-1.34302 -3.000023,-3.00002 v -25.7997 c 0,-2.76154 2.238728,-5.00027 5.000272,-5.00027 1.849262,0 3.460398,1.00683 4.325762,2.49978 h 48.748243 c 0.865717,-1.49295 2.4765,-2.49978 4.325761,-2.49978 2.761544,0 5.000272,2.23873 5.000272,5.00027 z" />
  </g>
</svg>
